<svg width="24" height="24" viewBox="0 0 24 24" fill="currentColor" xmlns="http://www.w3.org/2000/svg">
<path fill-rule="evenodd" clip-rule="evenodd" d="M16.7859 4.17694C16.5039 4.29376 16.0318 4.68084 16.0318 4.68084C15.5076 5.08723 14.9668 5.53104 14.4179 6.00367L18.0098 9.59563C18.4695 9.04427 18.9076 8.49912 19.3192 7.96823C19.3192 7.96823 19.7063 7.49612 19.8231 7.21409C19.9399 6.93207 20 6.6298 20 6.32453C20 6.01927 19.9399 5.717 19.8231 5.43497C19.7063 5.15295 19.535 4.89669 19.3192 4.68084C19.1033 4.46499 18.8471 4.29376 18.5651 4.17694C18.283 4.06013 17.9808 4 17.6755 4C17.3702 4 17.068 4.06013 16.7859 4.17694ZM16.7011 11.1153L12.9261 7.34035C8.79965 11.1786 4.65889 16.1768 4.02783 18.8219C3.8603 19.5241 4.4759 20.1397 5.17813 19.9722C8.60116 19.1555 13.0978 15.1658 16.7011 11.1153Z" />
</svg>
